<svg width="305" height="308" viewBox="0 0 305 308" fill="none" xmlns="http://www.w3.org/2000/svg">
<g filter="url(#filter0_d_117_15)">
<path d="M301 150C301 232.843 233.843 300 151 300C68.1573 300 4 232.843 4 150C4 67.1573 68.1573 0 151 0C233.843 0 301 67.1573 301 150Z" fill="#D9D9D9"/>
<path d="M295.5 150C295.5 229.805 230.805 294.5 151 294.5C71.3391 294.5 9.5 229.951 9.5 150C9.5 70.0486 71.3391 5.5 151 5.5C230.805 5.5 295.5 70.1949 295.5 150Z" stroke="#0A7077" stroke-width="11"/>
</g>
<path d="M105.523 142.994L88 150L138.742 18H155.819L179.091 80.0272L209 150L191.675 142.994L149.05 34.9272H147.95L105.523 142.994ZM112.475 96.6019H184.525V111.286H112.475V96.6019Z" fill="#0A7077"/>
<path d="M187.362 121.157C191.253 112.115 172.88 105.151 166.649 101.413C160.418 97.6751 163.487 99.4428 154.567 99.766C144.009 112.316 132.423 97.6422 127.579 99.894C122.784 102.144 128.936 103.422 126.287 107.151C123.685 110.879 122.438 115.053 122.546 119.673C122.635 123.539 123.648 126.829 125.583 129.543C127.565 132.209 130.064 134.407 133.08 136.138C136.095 137.822 139.247 139.194 142.536 140.254C145.823 141.268 148.842 142.078 151.592 142.687L166.647 146.105C170.507 146.956 174.807 148.169 179.548 149.743C184.336 151.315 188.924 153.532 193.31 156.393C197.744 159.205 201.429 162.894 204.367 167.459C207.305 172.024 208.853 177.701 209.011 184.491C209.193 192.317 207.271 199.465 203.245 205.934C199.268 212.401 193.342 217.642 185.467 221.655C177.64 225.666 168.068 227.877 156.749 228.287C146.198 228.669 137.023 227.327 129.224 224.259C121.473 221.189 115.321 216.741 110.77 210.913C106.267 205.083 89.934 170.096 89.1745 162.196L105.233 175.923L121.292 189.651C121.898 195.103 123.874 199.561 127.219 203.026C130.61 206.442 134.844 208.932 139.92 210.494C145.043 212.007 150.53 212.657 156.381 212.445C163.191 212.198 169.281 210.893 174.65 208.527C180.018 206.115 184.239 202.895 187.313 198.867C190.387 194.792 191.862 190.114 191.739 184.833C191.627 180.024 190.17 176.161 187.366 173.242C184.562 170.324 180.908 168.002 176.404 166.278C171.9 164.554 167.042 163.078 161.829 161.851L143.582 157.416C131.997 154.58 122.777 150.266 115.922 144.474C109.067 138.683 105.527 130.907 105.3 121.148C105.112 113.038 107.177 105.885 111.497 99.6885C115.864 93.4431 115.296 88.565 122.795 84.943C121.562 85.5575 156.93 84.9106 166.33 84.5701C175.826 84.226 168.719 84.9749 179.548 96.5C175.098 90.9043 187.01 99.5328 179.548 96.5C184.046 102.094 182.673 119.68 196.325 119.682L187.362 121.157Z" fill="#0A7077"/>
<path d="M93.752 240.376L91.416 249.56C91.3947 249.624 91.4053 249.688 91.448 249.752C91.512 249.795 91.576 249.816 91.64 249.816H95.928C95.992 249.816 96.0453 249.795 96.088 249.752C96.152 249.688 96.1733 249.624 96.152 249.56L93.816 240.376C93.816 240.355 93.8053 240.344 93.784 240.344C93.7627 240.344 93.752 240.355 93.752 240.376ZM85.208 259C84.76 259 84.3973 258.819 84.12 258.456C83.864 258.093 83.8107 257.699 83.96 257.272L90.424 237.368C90.5947 236.856 90.8933 236.44 91.32 236.12C91.768 235.8 92.2587 235.64 92.792 235.64H94.904C95.4587 235.64 95.96 235.8 96.408 236.12C96.856 236.44 97.1547 236.856 97.304 237.368L103.736 257.272C103.885 257.699 103.821 258.093 103.544 258.456C103.288 258.819 102.936 259 102.488 259H100.344C99.8107 259 99.3307 258.84 98.904 258.52C98.4773 258.179 98.2 257.752 98.072 257.24L97.304 254.2C97.2827 254.029 97.176 253.944 96.984 253.944H90.584C90.4133 253.944 90.3067 254.029 90.264 254.2L89.496 257.24C89.368 257.752 89.0907 258.179 88.664 258.52C88.2373 258.84 87.7573 259 87.224 259H85.208ZM111.994 240.056V254.584C111.994 254.776 112.09 254.893 112.282 254.936C112.709 255.021 113.221 255.064 113.818 255.064C115.973 255.064 117.562 254.435 118.586 253.176C119.631 251.917 120.154 249.859 120.154 247C120.154 244.44 119.631 242.563 118.586 241.368C117.541 240.173 115.951 239.576 113.818 239.576C113.221 239.576 112.709 239.619 112.282 239.704C112.09 239.747 111.994 239.864 111.994 240.056ZM108.474 259.064C107.962 259.021 107.535 258.808 107.194 258.424C106.853 258.019 106.682 257.549 106.682 257.016V237.624C106.682 237.091 106.853 236.632 107.194 236.248C107.535 235.843 107.962 235.619 108.474 235.576C110.138 235.405 111.781 235.32 113.402 235.32C117.221 235.32 120.165 236.333 122.234 238.36C124.303 240.387 125.338 243.267 125.338 247C125.338 251.053 124.303 254.125 122.234 256.216C120.165 258.285 117.221 259.32 113.402 259.32C111.781 259.32 110.138 259.235 108.474 259.064ZM132.462 249.784L125.806 237.24C125.614 236.877 125.625 236.525 125.838 236.184C126.051 235.821 126.371 235.64 126.798 235.64H129.39C129.945 235.64 130.446 235.789 130.894 236.088C131.342 236.387 131.673 236.792 131.886 237.304L135.406 245.624C135.406 245.645 135.417 245.656 135.438 245.656C135.459 245.656 135.47 245.645 135.47 245.624L138.99 237.304C139.203 236.792 139.534 236.387 139.982 236.088C140.43 235.789 140.931 235.64 141.486 235.64H143.95C144.355 235.64 144.665 235.821 144.878 236.184C145.113 236.525 145.134 236.877 144.942 237.24L138.286 249.784C138.201 249.933 138.158 250.115 138.158 250.328V257.176C138.158 257.667 137.977 258.093 137.614 258.456C137.273 258.819 136.857 259 136.366 259H134.382C133.891 259 133.465 258.819 133.102 258.456C132.739 258.093 132.558 257.667 132.558 257.176V250.328C132.558 250.072 132.526 249.891 132.462 249.784ZM152.096 240.376L149.76 249.56C149.738 249.624 149.749 249.688 149.792 249.752C149.856 249.795 149.92 249.816 149.984 249.816H154.272C154.336 249.816 154.389 249.795 154.432 249.752C154.496 249.688 154.517 249.624 154.496 249.56L152.16 240.376C152.16 240.355 152.149 240.344 152.128 240.344C152.106 240.344 152.096 240.355 152.096 240.376ZM143.552 259C143.104 259 142.741 258.819 142.464 258.456C142.208 258.093 142.154 257.699 142.304 257.272L148.768 237.368C148.938 236.856 149.237 236.44 149.664 236.12C150.112 235.8 150.602 235.64 151.136 235.64H153.248C153.802 235.64 154.304 235.8 154.752 236.12C155.2 236.44 155.498 236.856 155.648 237.368L162.08 257.272C162.229 257.699 162.165 258.093 161.888 258.456C161.632 258.819 161.28 259 160.832 259H158.688C158.154 259 157.674 258.84 157.248 258.52C156.821 258.179 156.544 257.752 156.416 257.24L155.648 254.2C155.626 254.029 155.52 253.944 155.328 253.944H148.928C148.757 253.944 148.65 254.029 148.608 254.2L147.84 257.24C147.712 257.752 147.434 258.179 147.008 258.52C146.581 258.84 146.101 259 145.568 259H143.552ZM166.85 259C166.359 259 165.932 258.819 165.57 258.456C165.207 258.093 165.026 257.667 165.026 257.176V237.464C165.026 236.973 165.207 236.547 165.57 236.184C165.932 235.821 166.359 235.64 166.85 235.64H168.418C169.634 235.64 170.519 236.173 171.074 237.24L177.794 249.944C177.794 249.965 177.804 249.976 177.826 249.976C177.847 249.976 177.858 249.965 177.858 249.944V237.464C177.858 236.973 178.039 236.547 178.402 236.184C178.764 235.821 179.191 235.64 179.682 235.64H181.25C181.74 235.64 182.167 235.821 182.53 236.184C182.892 236.547 183.074 236.973 183.074 237.464V257.176C183.074 257.667 182.892 258.093 182.53 258.456C182.167 258.819 181.74 259 181.25 259H179.682C178.466 259 177.58 258.467 177.026 257.4L170.306 244.696C170.306 244.675 170.295 244.664 170.274 244.664C170.252 244.664 170.242 244.675 170.242 244.696V257.176C170.242 257.667 170.06 258.093 169.698 258.456C169.335 258.819 168.908 259 168.418 259H166.85ZM188.956 240.152C188.465 240.152 188.039 239.971 187.676 239.608C187.313 239.245 187.132 238.819 187.132 238.328V237.464C187.132 236.973 187.313 236.547 187.676 236.184C188.039 235.821 188.465 235.64 188.956 235.64H203.228C203.719 235.64 204.145 235.821 204.508 236.184C204.871 236.547 205.052 236.973 205.052 237.464V238.328C205.052 238.819 204.871 239.245 204.508 239.608C204.145 239.971 203.719 240.152 203.228 240.152H199.132C198.961 240.152 198.876 240.237 198.876 240.408V257.176C198.876 257.667 198.695 258.093 198.332 258.456C197.969 258.819 197.543 259 197.052 259H195.132C194.641 259 194.215 258.819 193.852 258.456C193.489 258.093 193.308 257.667 193.308 257.176V240.408C193.308 240.237 193.223 240.152 193.052 240.152H188.956ZM213.908 240.376L211.572 249.56C211.551 249.624 211.562 249.688 211.604 249.752C211.668 249.795 211.732 249.816 211.796 249.816H216.084C216.148 249.816 216.202 249.795 216.244 249.752C216.308 249.688 216.33 249.624 216.308 249.56L213.972 240.376C213.972 240.355 213.962 240.344 213.94 240.344C213.919 240.344 213.908 240.355 213.908 240.376ZM205.364 259C204.916 259 204.554 258.819 204.276 258.456C204.02 258.093 203.967 257.699 204.116 257.272L210.58 237.368C210.751 236.856 211.05 236.44 211.476 236.12C211.924 235.8 212.415 235.64 212.948 235.64H215.06C215.615 235.64 216.116 235.8 216.564 236.12C217.012 236.44 217.311 236.856 217.46 237.368L223.892 257.272C224.042 257.699 223.978 258.093 223.7 258.456C223.444 258.819 223.092 259 222.644 259H220.5C219.967 259 219.487 258.84 219.06 258.52C218.634 258.179 218.356 257.752 218.228 257.24L217.46 254.2C217.439 254.029 217.332 253.944 217.14 253.944H210.74C210.57 253.944 210.463 254.029 210.42 254.2L209.652 257.24C209.524 257.752 209.247 258.179 208.82 258.52C208.394 258.84 207.914 259 207.38 259H205.364Z" fill="#0A7077"/>
<defs>
<filter id="filter0_d_117_15" x="0" y="0" width="305" height="308" filterUnits="userSpaceOnUse" color-interpolation-filters="sRGB">
<feFlood flood-opacity="0" result="BackgroundImageFix"/>
<feColorMatrix in="SourceAlpha" type="matrix" values="0 0 0 0 0 0 0 0 0 0 0 0 0 0 0 0 0 0 127 0" result="hardAlpha"/>
<feOffset dy="4"/>
<feGaussianBlur stdDeviation="2"/>
<feComposite in2="hardAlpha" operator="out"/>
<feColorMatrix type="matrix" values="0 0 0 0 0 0 0 0 0 0 0 0 0 0 0 0 0 0 0.25 0"/>
<feBlend mode="normal" in2="BackgroundImageFix" result="effect1_dropShadow_117_15"/>
<feBlend mode="normal" in="SourceGraphic" in2="effect1_dropShadow_117_15" result="shape"/>
</filter>
</defs>
</svg>
